<svg width="127" height="143" viewBox="0 0 127 143" fill="none" xmlns="http://www.w3.org/2000/svg">
<path d="M13.4012 119.072C14.3078 119.072 15.2791 119.137 16.1857 119.072C17.2866 118.943 17.4808 119.461 17.4808 120.432C17.4808 123.735 16.2505 126.26 13.1422 127.749C9.90444 129.303 5.95439 128.591 3.29942 126.066C0.126411 123.087 -0.197366 117.842 2.65187 114.41C5.56586 110.913 10.8758 110.136 14.3078 112.791C14.6316 113.05 15.6677 113.245 14.9554 114.022C14.4373 114.54 14.1783 115.576 12.9479 114.669C10.1635 112.727 6.73146 113.374 4.59453 115.964C2.71662 118.231 2.91087 121.986 4.98305 124.253C7.05522 126.454 10.6168 126.843 13.0775 125.094C13.5308 124.771 13.9193 124.382 14.1783 123.994C14.6316 123.346 15.2144 122.504 14.8906 121.727C14.6316 121.144 13.6603 121.533 13.0127 121.533C12.3004 121.468 11.5233 121.468 10.811 121.533C9.8397 121.598 9.45118 121.339 9.45118 120.303C9.45118 119.202 10.034 119.137 10.811 119.202C11.6528 119.072 12.5594 119.072 13.4012 119.072Z" fill="#537DBE"/>
<path d="M72.3279 120.95C72.3279 116.741 73.882 114.022 77.1198 112.662C80.0338 111.432 82.9478 111.561 85.6028 113.633C86.4446 114.281 86.3798 114.734 85.6028 115.446C85.0847 115.9 84.8904 115.77 84.3724 115.382C81.7174 113.245 78.1559 113.504 76.019 115.9C73.8173 118.296 73.882 122.375 76.0837 124.641C78.4149 127.102 82.0412 127.296 84.5667 125.03C85.4733 124.188 85.8618 124.512 86.5094 125.224C87.3512 126.195 86.3151 126.39 85.8618 126.713C83.0126 128.98 79.9043 129.239 76.7312 127.685C73.8172 126.26 72.3279 123.67 72.3279 120.95Z" fill="#8F8F8F"/>
<path d="M113.836 122.763C113.836 124.187 113.836 125.676 113.836 127.101C113.836 127.554 114.095 128.202 113.318 128.202C112.8 128.202 111.958 128.655 111.829 127.619C111.699 126.972 111.44 127.231 111.181 127.49C110.534 128.008 109.886 128.331 109.109 128.461C106.584 128.979 104.382 127.36 104.252 124.705C104.123 122.504 104.252 120.237 104.188 118.036C104.188 117.259 104.576 117.194 105.159 117.194C105.806 117.194 106.325 117.194 106.26 118.1C106.195 119.849 106.26 121.597 106.26 123.345C106.26 125.547 107.037 126.518 108.72 126.583C110.404 126.648 111.634 125.288 111.699 123.345C111.764 121.662 111.764 119.978 111.699 118.23C111.699 117.518 111.829 117.194 112.671 117.194C113.383 117.194 113.836 117.259 113.836 118.23C113.771 119.784 113.836 121.273 113.836 122.763Z" fill="#8F8F8F"/>
<path d="M54.6479 119.849C54.6479 117.453 54.7126 115.122 54.6479 112.726C54.5831 111.625 55.1659 111.755 55.8782 111.69C56.5905 111.69 57.0438 111.755 57.0438 112.661C56.979 117.453 56.979 122.245 57.0438 127.036C57.0438 127.943 56.72 128.072 55.943 128.072C55.2954 128.008 54.6479 128.202 54.6479 127.101C54.7126 124.705 54.6479 122.309 54.6479 119.849Z" fill="#2FA84E"/>
<path d="M90.4592 120.174C90.4592 122.505 90.4592 124.836 90.4592 127.167C90.4592 127.879 90.3944 128.397 89.4879 128.333C88.7108 128.333 88.2575 128.203 88.2575 127.232C88.2575 122.57 88.2575 117.907 88.2575 113.31C88.2575 112.403 88.7108 112.339 89.4231 112.274C90.265 112.274 90.5239 112.533 90.5239 113.375C90.4592 115.641 90.4592 117.907 90.4592 120.174Z" fill="#929292"/>
<path d="M52.9013 117.714C52.3185 117.52 51.4767 117.325 51.0234 117.843C50.6349 118.297 50.5054 118.232 50.1816 117.973C48.3037 116.743 46.4258 117.131 44.8069 118.426C43.1232 119.721 42.2814 121.534 42.67 123.671C43.3175 127.686 46.8791 129.305 50.7644 127.556C51.0234 129.175 50.5701 130.405 49.3398 130.988C48.1094 131.636 46.6848 131.377 45.7135 130.146C44.8717 129.046 44.0946 129.628 43.5118 130.146C42.8642 130.729 43.6413 131.312 44.0298 131.765C45.5192 133.449 47.9151 133.967 50.1816 133.125C52.3833 132.283 53.1603 130.47 53.2251 128.269C53.2898 125.16 53.2898 122.052 53.2251 118.944C53.2251 118.491 53.4194 117.908 52.9013 117.714ZM48.0447 126.261C46.2963 126.261 45.0011 124.707 45.0011 122.829C45.0011 120.887 46.361 119.527 48.1094 119.527C49.793 119.527 51.1529 121.081 51.0882 122.959C51.0882 124.837 49.6635 126.326 48.0447 126.261Z" fill="#537DBE"/>
<path d="M126.268 126.973C126.268 122.44 126.268 117.972 126.268 113.439C126.268 112.727 126.203 112.274 125.297 112.274C124.325 112.274 124.131 112.662 124.196 113.504C124.261 115.058 124.196 116.677 124.196 118.296C120.57 116.418 118.303 116.612 116.49 119.008C114.742 121.275 114.871 124.836 116.749 126.973C117.591 127.944 118.627 128.527 119.857 128.656C121.476 128.851 122.901 128.268 124.261 126.973C124.066 128.203 124.585 128.462 125.491 128.397C126.527 128.268 126.268 127.556 126.268 126.973ZM120.829 126.649C118.886 126.649 117.332 124.901 117.332 122.764C117.332 120.627 118.951 118.814 120.829 118.814C122.771 118.814 124.261 120.498 124.261 122.699C124.261 124.966 122.836 126.584 120.829 126.649Z" fill="#8F8F8F"/>
<path d="M36.0672 117.324C33.0237 117.324 30.4982 119.85 30.4982 122.893C30.4982 126.001 33.0236 128.592 36.1319 128.527C39.2401 128.462 41.6361 126.066 41.6361 122.958C41.7008 119.72 39.2402 117.26 36.0672 117.324ZM36.1319 126.325C34.3835 126.325 32.8942 124.706 32.9589 122.893C33.0237 120.951 34.3835 119.591 36.2614 119.591C38.0098 119.656 39.3049 121.08 39.3049 122.958C39.2402 124.771 37.8155 126.26 36.1319 126.325Z" fill="#F8B916"/>
<path d="M24.0221 117.324C20.9139 117.324 18.5179 119.785 18.4531 122.828C18.4531 126.001 20.8491 128.462 24.0221 128.462C27.1304 128.462 29.5263 126.001 29.5911 122.958C29.6558 119.785 27.1951 117.26 24.0221 117.324ZM24.0221 126.325C22.2737 126.26 20.9138 124.771 20.9786 122.893C20.9786 120.951 22.2737 119.591 24.0869 119.591C25.9 119.591 27.3247 121.145 27.2599 123.023C27.1951 124.836 25.7058 126.325 24.0221 126.325Z" fill="#E93E29"/>
<path d="M65.7232 125.418C64.5576 126.649 62.9387 126.649 61.7732 125.677C60.9961 125.095 60.7371 124.577 61.9674 124.123C63.8453 123.411 65.6585 122.634 67.4716 121.857C67.8601 121.663 68.3782 121.663 68.1192 120.886C67.3421 118.425 64.6224 116.806 62.1617 117.454C59.3124 118.166 57.7583 120.691 58.1468 123.929C58.4706 126.454 60.8666 128.462 63.9101 128.462C65.0109 128.462 66.306 128.009 67.2773 127.037C67.5364 126.778 68.5725 126.39 67.7306 125.742C67.2126 125.289 66.6945 124.382 65.7232 125.418ZM62.615 119.655C63.651 119.396 64.7519 119.396 65.3994 120.691C63.7805 121.339 62.2912 121.986 60.478 122.764C60.6723 121.015 61.2551 120.044 62.615 119.655Z" fill="#E93E29"/>
<path d="M97.5176 116.935C94.2151 116.871 91.7544 119.202 91.6896 122.569C91.6249 125.936 93.956 128.526 97.2586 128.526C100.496 128.591 102.957 126.195 103.022 122.893C103.087 119.526 100.755 117 97.5176 116.935ZM97.3233 126.648C95.2511 126.648 93.7618 124.965 93.7618 122.698C93.7618 120.626 95.4454 118.813 97.3881 118.878C99.3308 118.943 100.885 120.691 100.885 122.828C100.885 124.9 99.3307 126.584 97.3233 126.648Z" fill="#8F8F8F"/>
<path d="M11.8436 139.147V142.126H10.0953V133.708H13.3978C13.9158 133.708 14.3691 133.773 14.7576 133.902C15.1462 134.032 15.4699 134.226 15.729 134.485C15.988 134.744 16.1822 135.003 16.3765 135.392C16.506 135.715 16.5708 136.104 16.5708 136.492C16.5708 136.881 16.506 137.269 16.3765 137.593C16.247 137.917 16.0527 138.176 15.729 138.435C15.4052 138.694 15.1462 138.824 14.7576 138.953C14.3691 139.083 13.9158 139.147 13.3978 139.147H11.8436ZM11.8436 137.723H13.3978C13.6568 137.723 13.8511 137.723 14.0453 137.658C14.2396 137.593 14.3691 137.528 14.4986 137.399C14.6281 137.269 14.6929 137.14 14.7576 137.01C14.8224 136.881 14.8224 136.687 14.8224 136.492C14.8224 136.298 14.8224 136.104 14.7576 135.974C14.6929 135.78 14.6281 135.651 14.4986 135.521C14.3691 135.392 14.2396 135.262 14.0453 135.197C13.8511 135.133 13.6568 135.068 13.3978 135.068H11.8436V137.723Z" fill="#0E426A"/>
<path d="M23.176 137.398C23.1112 137.398 22.9817 137.398 22.8522 137.398C22.7227 137.398 22.6579 137.398 22.5284 137.398C22.2046 137.398 21.9457 137.463 21.7514 137.592C21.5571 137.722 21.4276 137.851 21.2981 138.045V142.125H19.6144V135.844H21.1686L21.2333 136.621C21.3628 136.362 21.5571 136.168 21.8161 135.973C22.0751 135.844 22.3342 135.714 22.5932 135.714C22.658 135.714 22.7874 135.714 22.8522 135.714C22.9817 135.714 23.0465 135.714 23.1112 135.779L23.176 137.398Z" fill="#0E426A"/>
<path d="M28.8089 142.19C28.2909 142.19 27.9024 142.125 27.5138 141.931C27.1253 141.801 26.8015 141.542 26.5425 141.283C26.2835 141.024 26.0892 140.7 25.9597 140.312C25.8302 139.923 25.7654 139.535 25.7654 139.146V138.952C25.7654 138.499 25.8302 138.045 25.9597 137.657C26.0892 137.268 26.2835 136.945 26.5425 136.621C26.8015 136.362 27.1253 136.103 27.4491 135.973C27.8376 135.844 28.2261 135.714 28.6794 135.714C29.1327 135.714 29.5213 135.779 29.8451 135.909C30.1688 136.038 30.4926 136.297 30.6869 136.556C30.9459 136.815 31.0754 137.139 31.2049 137.527C31.3344 137.916 31.3992 138.304 31.3992 138.758V139.47H27.4491C27.4491 139.664 27.5139 139.859 27.6434 140.053C27.7081 140.247 27.8376 140.377 27.9671 140.506C28.0966 140.636 28.2262 140.7 28.4204 140.765C28.6147 140.83 28.8089 140.895 29.0032 140.895C29.327 140.895 29.586 140.83 29.8451 140.7C30.1041 140.571 30.2983 140.441 30.4926 140.182L31.3344 141.089C31.2049 141.218 31.1401 141.348 30.9459 141.477C30.8164 141.607 30.6221 141.736 30.4278 141.866C30.2336 141.995 29.9746 142.06 29.7155 142.125C29.3918 142.19 29.1327 142.19 28.8089 142.19ZM28.6147 137.074C28.4204 137.074 28.2909 137.074 28.1614 137.139C28.0319 137.204 27.9024 137.268 27.8376 137.398C27.7081 137.527 27.6434 137.657 27.5786 137.786C27.5139 137.916 27.4491 138.11 27.4491 138.304H29.7803V138.175C29.7803 137.981 29.7803 137.851 29.7155 137.722C29.6508 137.592 29.586 137.463 29.5213 137.333C29.4565 137.204 29.327 137.139 29.1975 137.074C29.0032 137.139 28.809 137.074 28.6147 137.074Z" fill="#0E426A"/>
<path d="M35.933 135.844L35.9978 136.556C36.1921 136.297 36.451 136.103 36.7748 135.973C37.0986 135.844 37.4224 135.779 37.8109 135.779C38.1995 135.779 38.5232 135.844 38.7823 135.973C39.0413 136.103 39.3003 136.362 39.4298 136.686C39.6241 136.362 39.8831 136.168 40.2069 135.973C40.5307 135.779 40.8544 135.714 41.3077 135.714C41.6315 135.714 41.8905 135.779 42.1495 135.844C42.4086 135.909 42.6028 136.038 42.7971 136.232C42.9914 136.427 43.1209 136.686 43.1856 136.945C43.2504 137.268 43.3151 137.592 43.3151 138.045V141.995H41.6315V138.045C41.6315 137.851 41.6315 137.657 41.5667 137.527C41.502 137.398 41.4372 137.268 41.3725 137.204C41.3077 137.139 41.1782 137.074 41.0487 137.074C40.9192 137.074 40.7897 137.009 40.6601 137.009C40.4011 137.009 40.2069 137.074 40.0126 137.204C39.8183 137.333 39.6888 137.527 39.6241 137.722V137.786V137.851V141.995H37.9405V138.045C37.9405 137.851 37.9404 137.657 37.8757 137.527C37.8109 137.398 37.7462 137.268 37.6814 137.204C37.6167 137.139 37.4871 137.074 37.3576 137.074C37.2281 137.074 37.0986 137.009 36.9691 137.009C36.7101 137.009 36.5158 137.074 36.3216 137.139C36.1273 137.268 35.9978 137.398 35.933 137.592V141.995H34.2494V135.714H35.933V135.844Z" fill="#0E426A"/>
<path d="M46.6826 134.225C46.6826 133.966 46.7473 133.772 46.9416 133.578C47.1359 133.448 47.3302 133.319 47.6539 133.319C47.7834 133.319 47.9129 133.319 48.0424 133.384C48.1719 133.448 48.2367 133.513 48.3662 133.578C48.431 133.643 48.4957 133.772 48.5605 133.837C48.6252 133.966 48.6252 134.031 48.6252 134.161C48.6252 134.29 48.6252 134.42 48.5605 134.484C48.4957 134.614 48.431 134.679 48.3662 134.743C48.3015 134.808 48.1719 134.873 48.0424 134.938C47.9129 135.002 47.7834 135.002 47.6539 135.002C47.5244 135.002 47.3949 135.002 47.2654 134.938C47.1359 134.873 47.0711 134.808 46.9416 134.743C46.8769 134.679 46.8121 134.549 46.7474 134.484C46.6826 134.484 46.6826 134.355 46.6826 134.225ZM48.4309 142.125H46.7474V135.844H48.4309V142.125Z" fill="#0E426A"/>
<path d="M54.7746 142.19C54.2566 142.19 53.868 142.125 53.4795 141.931C53.091 141.736 52.7672 141.542 52.5082 141.283C52.2491 141.024 52.0548 140.7 51.9253 140.312C51.7958 139.923 51.7311 139.535 51.7311 139.146V138.952C51.7311 138.499 51.7958 138.045 51.9253 137.657C52.0548 137.268 52.2491 136.945 52.5082 136.621C52.7672 136.362 53.0909 136.103 53.4147 135.973C53.8032 135.844 54.1918 135.714 54.6451 135.714C55.0984 135.714 55.4869 135.779 55.8107 135.909C56.1345 136.038 56.4582 136.297 56.6525 136.556C56.9115 136.815 57.041 137.139 57.1705 137.527C57.3 137.916 57.3648 138.304 57.3648 138.758V139.47H53.4147C53.4147 139.664 53.4795 139.859 53.609 140.053C53.6737 140.247 53.8032 140.377 53.9327 140.506C54.0623 140.636 54.1918 140.7 54.386 140.765C54.5803 140.83 54.7746 140.895 54.9689 140.895C55.2926 140.895 55.5517 140.83 55.8107 140.7C56.0697 140.571 56.264 140.441 56.4582 140.182L57.3001 141.089C57.1705 141.218 57.1058 141.348 56.9115 141.477C56.782 141.607 56.5878 141.736 56.3935 141.866C56.1992 141.995 55.9402 142.06 55.6812 142.125C55.3574 142.19 55.0984 142.19 54.7746 142.19ZM54.5803 137.074C54.386 137.074 54.2566 137.074 54.127 137.139C53.9975 137.204 53.868 137.268 53.8033 137.398C53.7385 137.527 53.609 137.657 53.5442 137.786C53.4795 137.916 53.4147 138.11 53.4147 138.304H55.7459V138.175C55.7459 137.981 55.7459 137.851 55.6812 137.722C55.6164 137.592 55.5517 137.463 55.4869 137.333C55.4221 137.204 55.2926 137.139 55.1631 137.074C54.9041 137.139 54.7746 137.074 54.5803 137.074Z" fill="#0E426A"/>
<path d="M63.8422 137.398C63.7774 137.398 63.6479 137.398 63.5184 137.398C63.3889 137.398 63.3241 137.398 63.1946 137.398C62.8709 137.398 62.6118 137.463 62.4176 137.592C62.2233 137.722 62.0938 137.851 61.9643 138.045V142.125H60.3454V135.844H61.8995L61.9643 136.621C62.0938 136.362 62.2881 136.168 62.5471 135.973C62.8061 135.844 63.0651 135.714 63.3241 135.714C63.3889 135.714 63.5184 135.714 63.5831 135.714C63.7127 135.714 63.7774 135.714 63.8422 135.779V137.398Z" fill="#0E426A"/>
<path d="M73.5573 139.147V142.126H71.809V133.708H75.1114C75.6295 133.708 76.0828 133.773 76.4713 133.902C76.8598 134.032 77.1836 134.226 77.4426 134.485C77.7016 134.744 77.8959 135.003 78.0902 135.392C78.2197 135.715 78.2844 136.104 78.2844 136.492C78.2844 136.881 78.2197 137.269 78.0902 137.593C77.9607 137.917 77.7664 138.176 77.4426 138.435C77.1188 138.694 76.8598 138.824 76.4713 138.953C76.0828 139.083 75.6295 139.147 75.1114 139.147H73.5573ZM73.5573 137.723H75.1114C75.3704 137.723 75.5647 137.723 75.759 137.658C75.9532 137.593 76.0828 137.528 76.2123 137.399C76.3418 137.269 76.4065 137.14 76.4713 137.01C76.5361 136.881 76.536 136.687 76.536 136.492C76.536 136.298 76.5361 136.104 76.4713 135.974C76.4065 135.78 76.3418 135.651 76.2123 135.521C76.0828 135.392 75.9532 135.262 75.759 135.197C75.5647 135.133 75.3704 135.068 75.1114 135.068H73.5573V137.723Z" fill="#0E426A"/>
<path d="M84.9515 142.125C84.8867 141.995 84.822 141.801 84.7572 141.542C84.563 141.736 84.3687 141.866 84.1097 141.995C83.8506 142.125 83.5269 142.19 83.1383 142.19C82.8146 142.19 82.5555 142.125 82.2965 142.06C82.0375 141.995 81.8432 141.866 81.649 141.672C81.4547 141.477 81.3252 141.283 81.1957 141.089C81.0662 140.83 81.0662 140.636 81.0662 140.312C81.0662 139.988 81.1309 139.664 81.2604 139.47C81.3899 139.211 81.5842 139.017 81.7785 138.822C82.0375 138.628 82.2965 138.499 82.685 138.434C83.0736 138.369 83.4621 138.304 83.9154 138.304H84.6924V137.916C84.6924 137.657 84.6277 137.398 84.4982 137.204C84.3687 137.009 84.1097 136.945 83.7859 136.945C83.5269 136.945 83.2678 137.009 83.1383 137.139C83.0088 137.268 82.8793 137.463 82.8793 137.722H81.1957C81.1957 137.463 81.2604 137.204 81.3899 136.945C81.5194 136.686 81.7137 136.491 81.908 136.297C82.167 136.103 82.426 135.973 82.7498 135.844C83.0736 135.714 83.4621 135.714 83.8506 135.714C84.2392 135.714 84.563 135.779 84.8867 135.844C85.2105 135.909 85.4695 136.103 85.6638 136.232C85.858 136.427 86.0523 136.621 86.1818 136.945C86.3114 137.204 86.3761 137.527 86.3761 137.916V140.571C86.3761 140.765 86.3761 140.895 86.3761 141.024C86.3761 141.154 86.3761 141.283 86.4408 141.413C86.4408 141.542 86.5056 141.607 86.5056 141.736C86.5056 141.801 86.5703 141.931 86.6351 141.995V142.125H84.9515ZM83.5916 140.959C83.7211 140.959 83.8506 140.959 83.9801 140.895C84.1097 140.83 84.2392 140.83 84.3039 140.765C84.3687 140.7 84.4982 140.636 84.563 140.571C84.6277 140.506 84.6925 140.441 84.7572 140.377V139.276H84.0449C83.8506 139.276 83.6564 139.276 83.4621 139.341C83.2678 139.405 83.1383 139.47 83.0736 139.535C82.944 139.6 82.8793 139.729 82.8146 139.859C82.7498 139.988 82.7498 140.118 82.7498 140.247C82.7498 140.441 82.8146 140.636 82.9441 140.765C83.1383 140.895 83.3326 140.959 83.5916 140.959Z" fill="#0E426A"/>
<path d="M93.2399 137.398C93.1752 137.398 93.0457 137.398 92.9162 137.398C92.7866 137.398 92.7219 137.398 92.5924 137.398C92.2686 137.398 92.0096 137.463 91.8153 137.592C91.621 137.722 91.4915 137.851 91.362 138.045V142.125H89.6783V135.844H91.2325L91.2973 136.621C91.4268 136.362 91.6211 136.168 91.8801 135.973C92.1391 135.844 92.3981 135.714 92.6572 135.714C92.7219 135.714 92.8514 135.714 92.9162 135.714C93.0457 135.714 93.1104 135.714 93.1752 135.779L93.2399 137.398Z" fill="#0E426A"/>
<path d="M98.4217 134.29V135.844H99.5225V137.074H98.4217V140.182C98.4217 140.312 98.4217 140.441 98.4865 140.506C98.4865 140.571 98.5512 140.635 98.6159 140.7C98.6807 140.765 98.7455 140.765 98.8102 140.83C98.875 140.83 99.0045 140.83 99.0692 140.83C99.1987 140.83 99.2635 140.83 99.3283 140.83C99.393 140.83 99.4578 140.83 99.5225 140.83V142.125C99.393 142.189 99.2635 142.189 99.0692 142.254C98.875 142.254 98.7455 142.319 98.4865 142.319C98.2274 142.319 97.9684 142.254 97.7741 142.189C97.5799 142.125 97.3856 141.995 97.1914 141.866C97.0618 141.736 96.9323 141.542 96.8028 141.283C96.738 141.024 96.6733 140.765 96.6733 140.441V137.074H95.7667V135.844H96.6733V134.29H98.4217Z" fill="#0E426A"/>
<path d="M103.991 135.844L104.056 136.556C104.25 136.297 104.509 136.103 104.833 135.908C105.156 135.779 105.48 135.714 105.869 135.714C106.192 135.714 106.451 135.779 106.646 135.844C106.905 135.908 107.099 136.038 107.293 136.232C107.488 136.426 107.617 136.685 107.682 136.944C107.747 137.268 107.811 137.592 107.811 138.045V141.995H106.128V137.981C106.128 137.786 106.128 137.592 106.063 137.462C105.998 137.333 105.933 137.203 105.869 137.139C105.804 137.074 105.674 137.009 105.545 136.944C105.415 136.944 105.286 136.88 105.092 136.88C104.833 136.88 104.638 136.944 104.444 137.074C104.25 137.203 104.12 137.333 103.991 137.527V141.93H102.437V135.649H103.991V135.844Z" fill="#0E426A"/>
<path d="M114.029 142.19C113.511 142.19 113.123 142.125 112.734 141.931C112.346 141.801 112.022 141.542 111.763 141.283C111.504 141.024 111.31 140.7 111.18 140.312C111.051 139.923 110.986 139.535 110.986 139.146V138.952C110.986 138.499 111.051 138.045 111.18 137.657C111.31 137.268 111.504 136.945 111.763 136.621C112.022 136.362 112.346 136.103 112.669 135.973C113.058 135.844 113.446 135.714 113.9 135.714C114.353 135.714 114.742 135.779 115.065 135.909C115.389 136.038 115.713 136.297 115.907 136.556C116.166 136.815 116.296 137.139 116.425 137.527C116.555 137.916 116.62 138.304 116.62 138.758V139.47H112.669C112.669 139.664 112.734 139.859 112.864 140.053C112.928 140.247 113.058 140.377 113.187 140.506C113.317 140.636 113.446 140.7 113.641 140.765C113.835 140.83 114.029 140.895 114.224 140.895C114.547 140.895 114.806 140.83 115.065 140.7C115.324 140.571 115.519 140.441 115.713 140.182L116.555 141.089C116.425 141.218 116.36 141.348 116.166 141.477C115.972 141.607 115.842 141.736 115.648 141.866C115.454 141.995 115.195 142.06 114.936 142.125C114.612 142.19 114.353 142.19 114.029 142.19ZM113.835 137.074C113.641 137.074 113.511 137.074 113.382 137.139C113.252 137.204 113.123 137.268 113.058 137.398C112.993 137.527 112.864 137.657 112.799 137.786C112.734 137.916 112.669 138.11 112.669 138.304H115.001V138.175C115.001 137.981 115.001 137.851 114.936 137.722C114.871 137.592 114.806 137.463 114.742 137.333C114.677 137.204 114.547 137.139 114.418 137.074C114.224 137.139 114.029 137.074 113.835 137.074Z" fill="#0E426A"/>
<path d="M123.157 137.398C123.093 137.398 122.963 137.398 122.834 137.398C122.704 137.398 122.639 137.398 122.51 137.398C122.186 137.398 121.927 137.463 121.733 137.592C121.538 137.722 121.409 137.851 121.279 138.045V142.125H119.596V135.844H121.15L121.215 136.621C121.344 136.362 121.538 136.168 121.797 135.973C122.057 135.844 122.316 135.714 122.575 135.714C122.639 135.714 122.769 135.714 122.834 135.714C122.963 135.714 123.028 135.714 123.093 135.779L123.157 137.398Z" fill="#0E426A"/>
<path d="M108.791 15.4711V77.2913C108.791 85.5788 101.959 92.4104 93.6712 92.4104H62.7599V0.352051H93.6712C101.959 0.352051 108.791 7.18363 108.791 15.4711Z" fill="#0E426A"/>
<path d="M62.7596 0.352051V92.4104H31.8483C23.5605 92.4104 16.7287 85.5788 16.7287 77.2913V15.4711C16.7287 7.18363 23.5605 0.352051 31.8483 0.352051H62.7596Z" fill="#002C3F"/>
<path d="M94.2312 12.1113V35.8539H75.6396V92.4104H49.9922V35.8539H31.4007V12.1113H94.2312Z" fill="white"/>
<path d="M37.1125 17.9351V30.0303H55.8161V92.4105H62.7599V17.9351H37.1125Z" fill="#002C3F"/>
<path d="M88.4078 17.9351V30.0303H69.8163V92.4105H62.7604V17.9351H88.4078Z" fill="#0E426A"/>
</svg>
